<mxfile host="app.diagrams.net" agent="Mozilla/5.0 (Windows NT 10.0; Win64; x64; rv:129.0) Gecko/20100101 Firefox/129.0" version="24.7.7">
  <diagram name="Page-1" id="W7BoZxWSPkYcJ1iSatHc">
    <mxGraphModel dx="1185" dy="637" grid="1" gridSize="10" guides="1" tooltips="1" connect="1" arrows="1" fold="1" page="1" pageScale="1" pageWidth="1654" pageHeight="1169" math="0" shadow="0">
      <root>
        <mxCell id="0" />
        <mxCell id="1" parent="0" />
        <mxCell id="9jd31HU0PaajcvaMsGmP-1" value="Finger Hardware" style="rounded=1;whiteSpace=wrap;html=1;fillColor=none;dashed=1;dashPattern=12 12;spacingTop=-500;spacingRight=0;spacingLeft=400;fontColor=#000000;" vertex="1" parent="1">
          <mxGeometry x="547" y="410" width="560" height="420" as="geometry" />
        </mxCell>
        <mxCell id="9jd31HU0PaajcvaMsGmP-2" value="Breakout Sensor Board" style="rounded=1;whiteSpace=wrap;html=1;fillColor=none;dashed=1;dashPattern=12 12;spacingTop=-300;spacingRight=0;spacingLeft=400;fontColor=#000000;" vertex="1" parent="1">
          <mxGeometry x="567" y="560" width="510" height="233" as="geometry" />
        </mxCell>
        <mxCell id="9jd31HU0PaajcvaMsGmP-3" style="edgeStyle=orthogonalEdgeStyle;rounded=0;orthogonalLoop=1;jettySize=auto;html=1;entryX=0.5;entryY=1;entryDx=0;entryDy=0;exitX=0;exitY=0.5;exitDx=0;exitDy=0;fontColor=#000000;" edge="1" parent="1" source="9jd31HU0PaajcvaMsGmP-8" target="9jd31HU0PaajcvaMsGmP-17">
          <mxGeometry relative="1" as="geometry">
            <mxPoint x="987" y="720" as="targetPoint" />
            <mxPoint x="577" y="510" as="sourcePoint" />
            <Array as="points">
              <mxPoint x="597" y="480" />
              <mxPoint x="597" y="780" />
              <mxPoint x="1007" y="780" />
            </Array>
          </mxGeometry>
        </mxCell>
        <mxCell id="9jd31HU0PaajcvaMsGmP-4" value="&lt;div&gt;3V3&lt;/div&gt;" style="edgeLabel;html=1;align=center;verticalAlign=middle;resizable=0;points=[];fontColor=#000000;" vertex="1" connectable="0" parent="9jd31HU0PaajcvaMsGmP-3">
          <mxGeometry x="-0.5422" y="2" relative="1" as="geometry">
            <mxPoint x="-22" as="offset" />
          </mxGeometry>
        </mxCell>
        <mxCell id="9jd31HU0PaajcvaMsGmP-5" style="edgeStyle=orthogonalEdgeStyle;rounded=0;orthogonalLoop=1;jettySize=auto;html=1;entryX=0.5;entryY=1;entryDx=0;entryDy=0;fontColor=#000000;" edge="1" parent="1" source="9jd31HU0PaajcvaMsGmP-7" target="9jd31HU0PaajcvaMsGmP-11">
          <mxGeometry relative="1" as="geometry" />
        </mxCell>
        <mxCell id="9jd31HU0PaajcvaMsGmP-6" value="I2C" style="edgeLabel;html=1;align=center;verticalAlign=middle;resizable=0;points=[];fontColor=#000000;" vertex="1" connectable="0" parent="9jd31HU0PaajcvaMsGmP-5">
          <mxGeometry x="-0.0138" y="-1" relative="1" as="geometry">
            <mxPoint x="19" as="offset" />
          </mxGeometry>
        </mxCell>
        <mxCell id="9jd31HU0PaajcvaMsGmP-7" value="&lt;div&gt;Oximetry Sensor&lt;/div&gt;" style="rounded=1;whiteSpace=wrap;html=1;fontColor=#000000;" vertex="1" parent="1">
          <mxGeometry x="627" y="660" width="120" height="60" as="geometry" />
        </mxCell>
        <mxCell id="9jd31HU0PaajcvaMsGmP-8" value="&lt;div&gt;Microcontroller Dev Board&lt;br&gt;&lt;/div&gt;" style="rounded=1;whiteSpace=wrap;html=1;fontColor=#000000;" vertex="1" parent="1">
          <mxGeometry x="787" y="420" width="120" height="120" as="geometry" />
        </mxCell>
        <mxCell id="9jd31HU0PaajcvaMsGmP-9" style="edgeStyle=orthogonalEdgeStyle;rounded=0;orthogonalLoop=1;jettySize=auto;html=1;entryX=0.5;entryY=1;entryDx=0;entryDy=0;fontColor=#000000;" edge="1" parent="1" target="9jd31HU0PaajcvaMsGmP-8">
          <mxGeometry relative="1" as="geometry">
            <Array as="points">
              <mxPoint x="847" y="600" />
            </Array>
            <mxPoint x="747" y="600" as="sourcePoint" />
            <mxPoint x="847" y="600" as="targetPoint" />
          </mxGeometry>
        </mxCell>
        <mxCell id="9jd31HU0PaajcvaMsGmP-10" value="&lt;div&gt;I2C&lt;/div&gt;" style="edgeLabel;html=1;align=center;verticalAlign=middle;resizable=0;points=[];fontColor=#000000;" vertex="1" connectable="0" parent="9jd31HU0PaajcvaMsGmP-9">
          <mxGeometry x="-0.1782" y="-1" relative="1" as="geometry">
            <mxPoint x="-11" y="-23" as="offset" />
          </mxGeometry>
        </mxCell>
        <mxCell id="9jd31HU0PaajcvaMsGmP-11" value="Biometric Sensor Hub" style="rounded=1;whiteSpace=wrap;html=1;fontColor=#000000;" vertex="1" parent="1">
          <mxGeometry x="627" y="570" width="120" height="60" as="geometry" />
        </mxCell>
        <mxCell id="9jd31HU0PaajcvaMsGmP-12" style="edgeStyle=orthogonalEdgeStyle;rounded=0;orthogonalLoop=1;jettySize=auto;html=1;entryX=0.5;entryY=1;entryDx=0;entryDy=0;fontColor=#000000;" edge="1" parent="1" source="9jd31HU0PaajcvaMsGmP-14" target="9jd31HU0PaajcvaMsGmP-8">
          <mxGeometry relative="1" as="geometry" />
        </mxCell>
        <mxCell id="9jd31HU0PaajcvaMsGmP-13" value="I2C" style="edgeLabel;html=1;align=center;verticalAlign=middle;resizable=0;points=[];fontColor=#000000;" vertex="1" connectable="0" parent="9jd31HU0PaajcvaMsGmP-12">
          <mxGeometry x="0.0414" y="-3" relative="1" as="geometry">
            <mxPoint x="-18" y="43" as="offset" />
          </mxGeometry>
        </mxCell>
        <mxCell id="9jd31HU0PaajcvaMsGmP-14" value="&lt;div&gt;Accelerometer&lt;/div&gt;" style="rounded=1;whiteSpace=wrap;html=1;fontColor=#000000;" vertex="1" parent="1">
          <mxGeometry x="787" y="660" width="120" height="60" as="geometry" />
        </mxCell>
        <mxCell id="9jd31HU0PaajcvaMsGmP-15" style="edgeStyle=orthogonalEdgeStyle;rounded=0;orthogonalLoop=1;jettySize=auto;html=1;fontColor=#000000;" edge="1" parent="1" source="9jd31HU0PaajcvaMsGmP-17">
          <mxGeometry relative="1" as="geometry">
            <Array as="points">
              <mxPoint x="1007" y="600" />
              <mxPoint x="847" y="600" />
            </Array>
            <mxPoint x="847" y="540" as="targetPoint" />
          </mxGeometry>
        </mxCell>
        <mxCell id="9jd31HU0PaajcvaMsGmP-16" value="&lt;div&gt;I2C&lt;/div&gt;" style="edgeLabel;html=1;align=center;verticalAlign=middle;resizable=0;points=[];fontColor=#000000;" vertex="1" connectable="0" parent="9jd31HU0PaajcvaMsGmP-15">
          <mxGeometry x="-0.5559" y="2" relative="1" as="geometry">
            <mxPoint x="-25" y="-22" as="offset" />
          </mxGeometry>
        </mxCell>
        <mxCell id="9jd31HU0PaajcvaMsGmP-17" value="Thermometer" style="rounded=1;whiteSpace=wrap;html=1;fontColor=#000000;" vertex="1" parent="1">
          <mxGeometry x="947" y="660" width="120" height="60" as="geometry" />
        </mxCell>
        <mxCell id="9jd31HU0PaajcvaMsGmP-18" style="edgeStyle=orthogonalEdgeStyle;rounded=0;orthogonalLoop=1;jettySize=auto;html=1;entryX=0.5;entryY=1;entryDx=0;entryDy=0;fontColor=#000000;" edge="1" parent="1" target="9jd31HU0PaajcvaMsGmP-7">
          <mxGeometry relative="1" as="geometry">
            <mxPoint x="687" y="780" as="sourcePoint" />
            <mxPoint x="686.66" y="780" as="targetPoint" />
          </mxGeometry>
        </mxCell>
        <mxCell id="9jd31HU0PaajcvaMsGmP-19" style="edgeStyle=orthogonalEdgeStyle;rounded=0;orthogonalLoop=1;jettySize=auto;html=1;entryX=0.5;entryY=1;entryDx=0;entryDy=0;fontColor=#000000;" edge="1" parent="1" target="9jd31HU0PaajcvaMsGmP-14">
          <mxGeometry relative="1" as="geometry">
            <mxPoint x="847" y="780" as="sourcePoint" />
            <mxPoint x="857" y="730" as="targetPoint" />
          </mxGeometry>
        </mxCell>
        <mxCell id="9jd31HU0PaajcvaMsGmP-20" style="edgeStyle=orthogonalEdgeStyle;rounded=0;orthogonalLoop=1;jettySize=auto;html=1;fontColor=#000000;sourcePerimeterSpacing=0;entryX=0;entryY=0.5;entryDx=0;entryDy=0;" edge="1" parent="1" target="9jd31HU0PaajcvaMsGmP-11">
          <mxGeometry relative="1" as="geometry">
            <mxPoint x="597" y="600" as="sourcePoint" />
            <mxPoint x="707" y="530" as="targetPoint" />
            <Array as="points">
              <mxPoint x="627" y="600" />
              <mxPoint x="627" y="600" />
            </Array>
          </mxGeometry>
        </mxCell>
        <mxCell id="9jd31HU0PaajcvaMsGmP-21" value="" style="edgeStyle=orthogonalEdgeStyle;rounded=0;orthogonalLoop=1;jettySize=auto;html=1;fontColor=#000000;" edge="1" parent="1" source="9jd31HU0PaajcvaMsGmP-22" target="9jd31HU0PaajcvaMsGmP-8">
          <mxGeometry relative="1" as="geometry" />
        </mxCell>
        <mxCell id="9jd31HU0PaajcvaMsGmP-22" value="PC Power" style="rounded=1;whiteSpace=wrap;html=1;fontColor=#000000;" vertex="1" parent="1">
          <mxGeometry x="787" y="340" width="120" height="40" as="geometry" />
        </mxCell>
        <mxCell id="9jd31HU0PaajcvaMsGmP-23" value="" style="points=[[0.005,0.09,0],[0.08,0,0],[0.76,0.25,0],[1,0.92,0],[0.91,0.995,0],[0.57,0.995,0],[0.045,0.955,0],[0.005,0.43,0]];verticalLabelPosition=bottom;sketch=0;html=1;verticalAlign=top;aspect=fixed;align=center;pointerEvents=1;shape=mxgraph.cisco19.3g_4g_indicator;fillColor=#005073;strokeColor=none;flipH=0;" vertex="1" parent="1">
          <mxGeometry x="917" y="420" width="50" height="50" as="geometry" />
        </mxCell>
        <mxCell id="9jd31HU0PaajcvaMsGmP-24" value="" style="html=1;strokeWidth=1;shadow=0;dashed=0;shape=mxgraph.ios7.misc.bluetooth;fillColor=#007AFF;strokeColor=none;buttonText=;strokeColor2=#222222;fontColor=#222222;fontSize=8;verticalLabelPosition=bottom;verticalAlign=top;align=center;sketch=0;" vertex="1" parent="1">
          <mxGeometry x="967" y="420" width="15" height="15" as="geometry" />
        </mxCell>
      </root>
    </mxGraphModel>
  </diagram>
</mxfile>
